<?xml version="1.0" encoding="utf-8"?>
<!-- Generator: Adobe Illustrator 16.0.0, SVG Export Plug-In . SVG Version: 6.00 Build 0)  -->
<!DOCTYPE svg PUBLIC "-//W3C//DTD SVG 1.1//EN" "http://www.w3.org/Graphics/SVG/1.1/DTD/svg11.dtd">
<svg version="1.1" id="레이어_1" xmlns="http://www.w3.org/2000/svg" xmlns:xlink="http://www.w3.org/1999/xlink" x="0px"
	 y="0px" width="477.767px" height="477.768px" viewBox="0 0 477.767 477.768" enable-background="new 0 0 477.767 477.768"
	 xml:space="preserve">
<g>
	<g>
		<defs>
			
				<rect id="SVGID_1_" x="69.964" y="69.972" transform="matrix(-0.7071 -0.7071 0.7071 -0.7071 238.8833 576.7172)" width="337.84" height="337.824"/>
		</defs>
		<clipPath id="SVGID_2_">
			<use xlink:href="#SVGID_1_"  overflow="visible"/>
		</clipPath>
		<path clip-path="url(#SVGID_2_)" fill="#FEDC60" d="M279.208,325.822c6.02,10.22,9.38,22.259,9.381,34.859
			c-0.14,28.98-36.82,100.031-41.019,107.872c-1.68,3.08-5.041,5.04-8.681,5.039c-3.639,0.001-7-1.958-8.819-5.18
			c-4.059-7.699-40.46-78.751-40.601-107.73c0.001-12.6,3.36-24.639,9.381-34.86l40.041,0.001L279.208,325.822L279.208,325.822z"/>
		<path clip-path="url(#SVGID_2_)" fill="#FCCB00" d="M238.89,325.823l40.318-0.001c6.02,10.22,9.38,22.259,9.381,34.859
			c-0.14,28.98-36.82,100.031-41.019,107.872c-1.68,3.08-5.041,5.04-8.681,5.039L238.89,325.823L238.89,325.823z"/>
	</g>
	<path fill="#FCCB00" d="M248.829,331.002l0.139,39.62c-0.139,2.659-1.259,5.179-2.939,6.858c-1.82,1.82-4.34,2.94-7,3.081
		l-0.14-0.14c-5.459-0.14-9.8-4.48-9.8-9.8l0.14-39.621c-0.14-5.46,4.2-9.799,9.66-9.66l0.14-0.139
		C244.487,321.063,248.968,325.543,248.829,331.002L248.829,331.002z"/>
	<path fill="#F8B600" d="M239.029,321.202c5.459-0.14,9.939,4.341,9.8,9.8l0.139,39.62c-0.139,2.659-1.259,5.179-2.939,6.858
		c-1.82,1.82-4.34,2.94-7,3.081l-0.14-0.14v-59.081L239.029,321.202L239.029,321.202L239.029,321.202z"/>
	<path fill="#EC6725" d="M150.235,226.331c-49.715,49.715-23.374,107.435-23.229,110.099c1.074,3.261,3.76,5.742,7.109,6.534
		c3.343,0.8,6.864-0.191,9.297-2.624c31.271-26.191,50.784-42.533,49.225-41.228l-33.782-81.401L150.235,226.331L150.235,226.331
		L150.235,226.331z"/>
	<path fill="#E83D29" d="M285.045,299.03c1.542,1.324,51.315,44.079,48.09,41.309c5.213,5.213,14.096,3.084,16.406-3.911
		c0.146-2.657,26.19-60.68-23.229-110.098l-8.62-8.62L285.045,299.03L285.045,299.03z"/>
	<path fill="#F29312" d="M298.667,301.322c-3.639,11.2-7.419,22.261-10.919,32.76c-1.261,4.06-5.04,6.72-9.381,6.86h-78.958
		c-4.339-0.141-8.12-2.8-9.379-6.859c-3.5-10.5-7.28-21.561-10.92-32.76c-2.1-6.58,23.799-13.16,21.56-19.881h76.438
		C274.868,288.163,300.768,294.743,298.667,301.322L298.667,301.322z"/>
	<path fill="#EC6725" d="M298.667,301.322c-3.639,11.2-7.419,22.261-10.919,32.76c-1.261,4.06-5.04,6.72-9.381,6.86h-39.479
		l0.14-59.499l38.079-0.001C274.868,288.163,300.768,294.743,298.667,301.322L298.667,301.322z"/>
	<path fill="#EBE9EF" d="M302.588,75.366c17.78,30.38,26.039,61.318,25.34,95.899c-0.701,40.459-16.24,90.718-29.26,130.058h-59.639
		l-59.918,0.001c-13.02-39.34-28.7-89.74-29.259-130.06c-0.7-34.578,7.56-65.519,25.34-95.899l19.318-8.959
		c12.46,11.899,28.42,18.061,44.379,18.06c15.96,0,31.921-6.16,44.381-18.061L302.588,75.366L302.588,75.366z"/>
	<path fill="#E1E0E3" d="M302.588,75.366c17.78,30.38,26.039,61.318,25.34,95.899c-0.701,40.459-16.24,90.718-29.26,130.058h-59.639
		l-0.14-216.856c15.96-0.001,31.921-6.161,44.381-18.061L302.588,75.366L302.588,75.366z"/>
	<g>
		<defs>
			
				<rect id="SVGID_3_" x="69.964" y="69.972" transform="matrix(-0.7071 -0.7071 0.7071 -0.7071 238.8833 576.7172)" width="337.84" height="337.824"/>
		</defs>
		<clipPath id="SVGID_4_">
			<use xlink:href="#SVGID_3_"  overflow="visible"/>
		</clipPath>
		<path clip-path="url(#SVGID_4_)" fill="#01B7D2" d="M238.888,123.105c-27.158,0-49.418,22.26-49.419,49.419
			c0.141,27.3,22.12,49.279,49.42,49.42l0.14,0.14c27.16,0,49.42-22.26,49.419-49.419
			C288.448,145.225,266.329,123.105,238.888,123.105L238.888,123.105z"/>
		<path clip-path="url(#SVGID_4_)" fill="#F29312" d="M302.588,75.366c-1.12,1.12-4.48,4.199-5.6,5.319
			c-16.38,15.821-37.098,23.66-58.098,23.66c-21,0-41.72-7.84-58.099-23.659c-1.12-1.12-4.479-4.201-5.599-5.321
			c14.699-25.059,35.698-48.578,56.979-68.179c1.82-1.819,4.2-2.8,6.72-2.8c2.521,0,4.9,0.98,6.72,2.8
			C266.888,26.786,287.748,50.445,302.588,75.366L302.588,75.366z"/>
		<path clip-path="url(#SVGID_4_)" fill="#565557" d="M248.688,251.904c0.14,5.46-4.339,9.939-9.8,9.799
			c-5.46,0.141-9.94-4.339-9.8-9.8c-0.139-5.46,4.339-9.938,9.799-9.799C244.348,241.963,248.829,246.443,248.688,251.904
			L248.688,251.904z"/>
		<path clip-path="url(#SVGID_4_)" fill="#EC6725" d="M302.588,75.366c-1.12,1.12-4.48,4.199-5.6,5.319
			c-16.38,15.821-37.098,23.66-58.098,23.66V4.387c2.521,0.001,4.9,0.98,6.72,2.801C266.888,26.786,287.748,50.445,302.588,75.366
			L302.588,75.366z"/>
	</g>
	<path fill="#00A8CB" d="M288.447,172.665c0.001,27.159-22.259,49.419-49.419,49.419l-0.14-0.14l-0.001-98.839
		C266.329,123.105,288.448,145.225,288.447,172.665L288.447,172.665z"/>
	<path fill="#403F44" d="M248.688,251.904c0.14,5.46-4.339,9.939-9.8,9.799l0-19.599
		C244.348,241.963,248.829,246.443,248.688,251.904L248.688,251.904z"/>
</g>
</svg>
